<?xml version="1.0" encoding="utf-8"?>
<!-- Generator: Adobe Illustrator 26.1.0, SVG Export Plug-In . SVG Version: 6.00 Build 0)  -->
<svg version="1.1" id="Layer_1" xmlns="http://www.w3.org/2000/svg" xmlns:xlink="http://www.w3.org/1999/xlink" x="0px" y="0px"
	 viewBox="0 0 27 41" style="enable-background:new 0 0 27 41;" xml:space="preserve">
<style type="text/css">
	.st0{fill:url(#SVGID_1_);}
	.st1{fill:#FF4757;}
	.st2{opacity:0.25;enable-background:new    ;}
	.st3{fill:#FFFFFF;}
</style>
<radialGradient id="SVGID_1_" cx="-94.7381" cy="8.6905" r="0.5" gradientTransform="matrix(21 0 0 10.5 2003 -56.45)" gradientUnits="userSpaceOnUse">
	<stop  offset="9.999999e-02" style="stop-color:#000000;stop-opacity:0.4"/>
	<stop  offset="1" style="stop-color:#000000;stop-opacity:5.000000e-02"/>
</radialGradient>
<ellipse class="st0" cx="13.5" cy="34.8" rx="10.5" ry="5.2"/>
<path class="st1" d="M27,13.5c0,5.6-6.8,13.5-12.2,21c-0.7,1-1.8,1-2.5,0C6.8,27,0,19.2,0,13.5C0,6,6,0,13.5,0S27,6,27,13.5z"/>
<path class="st2" d="M13.5,0C6,0,0,6,0,13.5c0,5.7,6.8,13.5,12.2,21c0.8,1,1.8,1,2.5,0C20.2,27,27,19.1,27,13.5C27,6,21,0,13.5,0z
	 M13.5,1C20.4,1,26,6.6,26,13.5c0,2.4-1.5,5.7-3.8,9.2c-2.3,3.6-5.5,7.4-8.3,11.2c-0.2,0.3-0.3,0.4-0.4,0.5
	c-0.1-0.1-0.2-0.3-0.4-0.5c-2.8-3.8-5.7-7.6-8-11.1c-2.4-3.5-4-6.8-4-9.3C1,6.6,6.6,1,13.5,1z"/>
<path class="st3" d="M19.2,7.8c0.5,0.5,0.4,1.3,0,1.7l-3.9,3.9l3.9,3.9c0.5,0.5,0.4,1.3,0,1.7c-0.4,0.4-1.2,0.5-1.7,0l-3.9-3.9l-4,4
	c-0.5,0.5-1.3,0.4-1.7,0c-0.4-0.4-0.4-1.3,0-1.7l3.9-3.9l-4-4c-0.5-0.5-0.4-1.3,0-1.7c0.4-0.4,1.3-0.4,1.7,0l3.9,3.9l3.9-3.9
	C18,7.3,18.7,7.3,19.2,7.8z"/>
</svg>
