<?xml version="1.0" encoding="UTF-8"?>
<svg id="new" xmlns="http://www.w3.org/2000/svg" viewBox="0 0 812 199.8003">
  <g opacity=".25">
    <g>
      <path d="m501.4,75.7999c-12.7,0-22.9,10.6-23.1,23.8v.6c.1,13.2,10.4,23.8,23.1,23.8,12.8,0,23.1-10.8,23.1-24.1s-10.3-24.1-23.1-24.1Zm.0004,37.1996c-6.6182,0-12.0469-5.7793-12.1006-12.7998v-.5054c.1445-7.2363,5.4473-12.8945,12.1006-12.8945,6.6719,0,12.0996,5.8765,12.0996,13.1001s-5.4277,13.0996-12.0996,13.0996Z"/>
      <path d="m398.8,75.7999c-12.7,0-23.1,10.8-23.1,24.1s10.3,24.1,23.1,24.1c12.7,0,23-10.6,23.1-23.8v-.6c-.1-13.2-10.4-23.8-23.1-23.8Zm12.1004,24.3158c-.0537,7.1045-5.4824,12.8838-12.1006,12.8838-6.6719,0-12.0996-5.877-12.0996-13.0996s5.4277-13.1001,12.0996-13.1001c6.6182,0,12.0469,5.7798,12.1006,12.8003v.5156Z"/>
      <path d="m810.5391,130.0796c-.1934-.3857-.4092-.7607-.6465-1.1221l-19.2295-29.2583,18.9912-28.9004c3.9717-5.96,2.335-14.0571-3.6592-18.0562-2.1055-1.4019-4.5938-2.1426-7.1953-2.1426h-15.5c-5.04,0-9.7656,2.6602-12.3535,6.9771l-4.0664,6.8379-4.0498-6.7788c-2.5693-4.2788-7.2939-6.9365-12.3301-6.9365h-15.5c-6.4765,0-11.8466,4.7658-12.8255,10.9719-9.1743-8.0609-21.2515-12.9719-34.4743-12.9719-19.1487,0-35.896,10.2909-44.8907,25.5533-8.4575-15.2624-24.2047-25.5533-42.2098-25.5533-5.2275,0-10.4004.8911-15.2998,2.5801v-18.3799c0-7.2788-5.9219-13.2002-13.2002-13.2002h-13.3994c-7.2783,0-13.2002,5.9214-13.2002,13.2002v39.2858c-8.6984-14.1161-23.8212-23.486-41-23.486-7.1152,0-14.127,1.6504-20.4883,4.7158-2.2227-1.7031-5.001-2.7158-8.0117-2.7158h-13.4004c-5.8059,0-10.7375,3.7728-12.4996,8.992-1.7623-5.2192-6.6945-8.992-12.5004-8.992h-13.3994c-2.9893,0-5.749.9985-7.9639,2.6792-6.3271-3.0645-13.3013-4.6792-20.5361-4.6792-17.4543,0-32.7893,9.67-41.4164,24.1659-5.6535-14.1193-19.8705-24.1659-36.484-24.1659-.0366,0-.0732,0-.1099.0005-8.7109.0874-17.0059,3.2925-23.5054,8.7329-6.8555-5.564-15.5254-8.7349-24.7183-8.7349l-.2661.0015c-5.6797,0-11.2217,1.3462-16.209,3.8252-1.9629-1.1592-4.251-1.8252-6.6914-1.8252h-13.3999c-7.2783,0-13.1997,5.9214-13.1997,13.2002v72c0,7.2783,5.9214,13.2002,13.1997,13.2002h13.3999c7.2788,0,13.2002-5.9219,13.2002-13.2002v-42.7661c.3003-4.1167,2.7378-6.6338,4.3999-6.6338,2.5796,0,4.6001,2.3721,4.6001,5.3999v44c0,7.2783,5.9214,13.2002,13.2002,13.2002h13.5c7.2783,0,13.1997-5.9219,13.1997-13.2246l-.0981-43.9082c.6387-3.252,2.6528-5.4673,4.1982-5.4673,2.5796,0,4.6001,2.3721,4.6001,5.3999v44c0,7.2783,5.9214,13.2002,13.1997,13.2002h13.5c7.2788,0,13.2002-5.9219,13.2002-13.2227l-.0098-4.8525c8.9282,12.194,22.955,20.0752,38.71,20.0752,7.1147,0,14.126-1.6504,20.4873-4.7168,2.2236,1.7041,5.002,2.7168,8.0127,2.7168h13.3994c5.1642,0,9.6331-2.9884,11.8008-7.3201v25.1199c0,7.2783,5.9209,13.2002,13.1992,13.2002h13.4004c7.2783,0,13.2002-5.9219,13.2002-13.2002v-18.3252c4.8604,1.6621,10.0098,2.5254,15.2998,2.5254,17.1788,0,32.3016-9.3701,41-23.4862v8.286c0,7.2783,5.9219,13.2002,13.2002,13.2002h13.3994c2.9893,0,5.749-.998,7.9639-2.6797,6.3271,3.0645,13.3018,4.6797,20.5361,4.6797,18.0052,0,33.7523-10.2911,42.2098-25.5535,8.9948,15.2624,25.7421,25.5535,44.8907,25.5535,13.1308,0,25.1298-4.8452,34.2804-12.8063.0372.2259.0638.4529.1132.6774.7314,3.335,2.6885,6.2061,5.498,8.0771,2.1084,1.4072,4.6006,2.1514,7.208,2.1514h15.5c5.0361,0,9.7607-2.6582,12.333-6.9404l4.3672-7.2783,4.3701,7.2822c2.5693,4.2783,7.2939,6.9365,12.3301,6.9365h15.2998c7.168,0,13-5.832,13-13,0-2.1221-.4912-4.1807-1.4609-6.1201Zm-466.739,8.0203h-13.5c-1.2,0-2.2-1-2.2-2.2v-44c0-9.3-7.1-16.4-15.6-16.4-7.7,0-14,6.8-15.2,15.6l.1,44.8c0,1.2-1,2.2-2.2,2.2h-13.5c-1.2,0-2.2-1-2.2-2.2v-44c0-9.3-7.1-16.4-15.6-16.4-8.2,0-14.9,7.7-15.4,17.3v43.1c0,1.2-1,2.2-2.2,2.2h-13.4c-1.2,0-2.2-1-2.2-2.2V63.8999c0-1.2,1-2.2,2.2-2.2h13.4c1.2,0,2.2,1,2.2,2.2v6.4c4.8-6.6,12.5-10.6,20.7-10.6,10.5-.1,20.3,5.7,25.2,15,4.3-9.1,13.4-14.9,23.4-15,15.5,0,28.1,11.9,28.1001,26.7l.1,49.5c0,1.2-1,2.2-2.2,2.2Zm96-2.2c0,1.2-1,2.2-2.2,2.2h-13.4c-1.2,0-2.2-1-2.2-2.2v-7.1c-6.9,7.2-16.4,11.3-26.3,11.3-20.9,0-37.8-18-37.8-40.2s16.9-40.2,37.8-40.2c10,0,19.4,4.1,26.3,11.3v-7.1c0-1.2,1-2.2,2.2-2.2h13.4c1.2,0,2.2,1,2.2,2.2v72Zm64.7,4.2c-10,0-19.4-4.1-26.3-11.3v38.1c0,1.2-1,2.2-2.2,2.2h-13.4c-1.2,0-2.2-1-2.2-2.2V63.8999c0-1.2,1-2.2,2.2-2.2h13.4c1.2,0,2.2,1,2.2,2.2v7.1c6.9-7.2,16.4-11.3,26.3-11.3,20.9,0,37.8,18,37.8,40.2s-16.9,40.2-37.8,40.2Zm96.1,0c-10,0-19.4-4.1-26.3-11.3v7.1c0,1.2-1,2.2-2.2,2.2h-13.4c-1.2,0-2.2-1-2.2-2.2V32.8999c0-1.2,1-2.2,2.2-2.2h13.4c1.2,0,2.2,1,2.2,2.2v38.1c6.9-7.2,16.4-11.3,26.3-11.3,20.9,0,37.8,18,37.8,40.2s-16.9,40.2-37.8,40.2Zm87.1,0c-22.6,0-40.9-18-40.9-40.2s18.3-40.2,40.9-40.2,40.9,18,40.9,40.2-18.3,40.2-40.9,40.2Zm111.3-1.9h-15.3c-1.2,0-2.3-.6-2.9-1.6l-13.8-23-13.8,23c-.6,1-1.7,1.6-2.9,1.6h-15.5c-.4,0-.8-.1-1.1-.3-.9-.6-1.2-1.9-.6-2.8l23.2-35.3-23-35c-.2-.3-.3-.7-.3-1.1,0-1.1.9-2,2-2h15.5c1.2,0,2.3.6,2.9,1.6l13.5,22.6,13.5-22.7c.6-1,1.7-1.6,2.9-1.6h15.5c.4,0,.8.1,1.1.3.9.6,1.2,1.9.6,2.8l-23,35,23.2,35.3c.2.4.3.8.3,1.2,0,1.1-.9,2-2,2Zm-59.7757-44.3544l3.9124,5.9538-3.8799,5.9038c.2191-1.9061.3428-3.8403.3428-5.8032,0-2.0496-.1368-4.0671-.3753-6.0544Z"/>
      <path d="m687.6,75.7999c-12.7,0-23.1,10.8-23.1,24.1s10.3,24.1,23.1,24.1c12.7,0,23.1-10.8,23.1-24.1s-10.4-24.1-23.1-24.1Zm-.0004,37.1996c-6.6719,0-12.0996-5.877-12.0996-13.0996s5.4277-13.1001,12.0996-13.1001,12.1006,5.8765,12.1006,13.1001-5.4287,13.0996-12.1006,13.0996Z"/>
      <path d="m597.5,75.7999c-12.7,0-22.9,10.6-23.1,23.8v.6c.1,13.2,10.4,23.8,23.1,23.8s23.1-10.8,23.1-24.1-10.3-24.1-23.1-24.1Zm0,37.1996c-6.6182,0-12.0459-5.7793-12.0996-12.7998v-.5054c.1436-7.2363,5.4463-12.8945,12.0996-12.8945,6.6719,0,12.0996,5.8765,12.0996,13.1001s-5.4277,13.0996-12.0996,13.0996Z"/>
    </g>
    <g>
      <path d="m99.8999,0C44.8149,0,0,44.8149,0,99.8999s44.8149,99.9004,99.8999,99.9004,99.8999-44.8154,99.8999-99.9004S154.9849,0,99.8999,0Zm.0001,188.7999c-49.1,0-88.9-39.8-88.9-88.9S50.8,10.9999,99.9,10.9999s88.9,39.8,88.9,88.9-39.8,88.9-88.9,88.9Z"/>
      <path d="m140.7,59.0999c-17.7-17.6-45.7-18.3-62.6-1.4-30.5,30.5-20.7,84.7-20.7,84.7,0,0,54.3,9.7,84.7-20.7,16.9-16.9,16.3-45-1.4-62.6Zm-21.9,39.3l-8.7,17.9-8.7-17.9-17.9-8.7,17.9-8.7,8.7-17.9,8.7,17.9,17.9,8.7-17.9,8.7Z"/>
    </g>
  </g>
  <g>
    <g>
      <path d="m600.6,59.6999c-9.9,0-19.4,4.1-26.3,11.3v-38.1c0-1.2-1-2.2-2.2-2.2h-13.4c-1.2,0-2.2,1-2.2,2.2v103c0,1.2,1,2.2,2.2,2.2h13.4c1.2,0,2.2-1,2.2-2.2h0v-7.1c6.9,7.2,16.3,11.3,26.3,11.3,20.9,0,37.8-18,37.8-40.2s-16.9-40.2-37.8-40.2Zm-3.1,64.3c-12.7,0-23-10.6-23.1-23.8v-.6c.2-13.2,10.4-23.8,23.1-23.8,12.8,0,23.1,10.8,23.1,24.1s-10.4,24.1-23.1,24.1h0Z" fill="#fff"/>
      <path d="m687.7,59.6999c-22.6,0-40.9,18-40.9,40.2s18.3,40.2,40.9,40.2,40.9-18,40.9-40.2-18.3-40.2-40.9-40.2Zm-.1,64.3c-12.8,0-23.1-10.8-23.1-24.1s10.4-24.1,23.1-24.1,23.1,10.8,23.1,24.1-10.4,24.1-23.1,24.1h0Z" fill="#fff"/>
      <path d="m437.6,61.6999h-13.4c-1.2,0-2.2,1-2.2,2.2h0v7.1c-6.9-7.2-16.3-11.3-26.3-11.3-20.9,0-37.8,18-37.8,40.2s16.9,40.2,37.8,40.2c9.9,0,19.4-4.1,26.3-11.3v7.1c0,1.2,1,2.2,2.2,2.2h13.4c1.2,0,2.2-1,2.2-2.2h0V63.8999c0-1.2-1-2.2-2.2-2.2Zm-38.8,62.3c-12.8,0-23.1-10.8-23.1-24.1s10.4-24.1,23.1-24.1,23,10.6,23.1,23.8v.6c-.1,13.2-10.4,23.8-23.1,23.8h0Z" fill="#fff"/>
      <path d="m504.5,59.6999c-9.9,0-19.4,4.1-26.3,11.3v-7.1c0-1.2-1-2.2-2.2-2.2h-13.4c-1.2,0-2.2,1-2.2,2.2h0v103c0,1.2,1,2.2,2.2,2.2h13.4c1.2,0,2.2-1,2.2-2.2h0v-38.1c6.9,7.2,16.3,11.3,26.3,11.3,20.9,0,37.8-18,37.8-40.2s-16.9-40.2-37.8-40.2Zm-3.1,64.3c-12.7,0-23-10.6-23.1-23.8v-.6c.2-13.2,10.4-23.8,23.1-23.8,12.8,0,23.1,10.8,23.1,24.1s-10.3,24.1-23.1,24.1h0Z" fill="#fff"/>
      <path d="m317.8,59.6999c-10,.1-19.1,5.9-23.4,15-4.9-9.3-14.7-15.1-25.2-15-8.2,0-15.9,4-20.7,10.6v-6.4c0-1.2-1-2.2-2.2-2.2h-13.4c-1.2,0-2.2,1-2.2,2.2h0v72c0,1.2,1,2.2,2.2,2.2h13.4c1.2,0,2.2-1,2.2-2.2h0v-43.1c.5-9.6,7.2-17.3,15.4-17.3,8.5,0,15.6,7.1,15.6,16.4v44c0,1.2,1,2.2,2.2,2.2h13.5c1.2,0,2.2-1,2.2-2.2h0l-.1-44.8c1.2-8.8,7.5-15.6,15.2-15.6,8.5,0,15.6,7.1,15.6,16.4v44c0,1.2,1,2.2,2.2,2.2h13.5c1.2,0,2.2-1,2.2-2.2h0l-.1-49.5c0-14.8-12.6001-26.7-28.1001-26.7Z" fill="#fff"/>
      <path d="m800.7,134.9999l-23.2-35.3,23-35c.6-.9.3-2.2-.6-2.8-.3-.2-.7-.3-1.1-.3h-15.5c-1.2,0-2.3.6-2.9,1.6l-13.5,22.7-13.5-22.6c-.6-1-1.7-1.6-2.9-1.6h-15.5c-1.1,0-2,.9-2,2,0,.4.1.8.3,1.1l23,35-23.2,35.3c-.6.9-.3,2.2.6,2.8.3.2.7.3,1.1.3h15.5c1.2,0,2.3-.6,2.9-1.6l13.8-23,13.8,23c.6,1,1.7,1.6,2.9,1.6h15.3c1.1,0,2-.9,2-2,0-.4-.1-.8-.3-1.2Z" fill="#fff"/>
    </g>
    <g>
      <path d="m99.9,10.9999C50.8,10.9999,11,50.7999,11,99.8999s39.8,88.9,88.9,88.9,88.9-39.8,88.9-88.9S149,10.9999,99.9,10.9999Zm42.2,110.7c-30.4,30.4-84.7,20.7-84.7,20.7,0,0-9.8-54.2,20.7-84.7,16.9-16.9,44.9-16.2,62.6,1.4,17.7,17.6,18.3,45.7,1.4,62.6h0Z" fill="#fff"/>
      <polygon points="110.1 63.0999 101.4 80.9999 83.5 89.6999 101.4 98.3999 110.1 116.2999 118.8 98.3999 136.7 89.6999 118.8 80.9999 110.1 63.0999" fill="#fff"/>
    </g>
  </g>
</svg>